<mxfile host="app.diagrams.net" modified="2021-12-06T06:21:11.277Z" agent="5.0 (X11)" etag="dWRVDig9pxCXJUNc-pBs" version="15.8.9" type="github">
  <diagram id="oimWvdb1-uAi7EUzjqZk" name="Page-1">
    <mxGraphModel dx="1350" dy="764" grid="1" gridSize="10" guides="1" tooltips="1" connect="1" arrows="1" fold="1" page="1" pageScale="1" pageWidth="1169" pageHeight="827" math="0" shadow="0">
      <root>
        <mxCell id="0" />
        <mxCell id="1" parent="0" />
        <mxCell id="6o3GvOoSOWwoZ4Axit_t-26" value="MAIN" style="rounded=0;whiteSpace=wrap;html=1;shadow=0;labelBackgroundColor=none;labelBorderColor=none;fillStyle=auto;fontSize=12;fillColor=#bac8d3;align=left;verticalAlign=top;strokeColor=#23445d;fontStyle=1" parent="1" vertex="1">
          <mxGeometry x="40" y="80" width="1080" height="610" as="geometry" />
        </mxCell>
        <mxCell id="6o3GvOoSOWwoZ4Axit_t-2" value="&#xa;    PARAMS  " style="rounded=1;whiteSpace=wrap;verticalAlign=top;align=left;fontStyle=1;labelBackgroundColor=none;labelBorderColor=none;shadow=0;fillColor=#e1d5e7;strokeColor=#9673a6;" parent="1" vertex="1">
          <mxGeometry x="47.65" y="111.6" width="1064.7" height="270" as="geometry" />
        </mxCell>
        <mxCell id="6o3GvOoSOWwoZ4Axit_t-5" value="Схема взаимодействия элементов в виджете &quot;Параметры&quot;" style="text;html=1;strokeColor=none;fillColor=none;align=center;verticalAlign=middle;whiteSpace=wrap;rounded=0;shadow=0;labelBackgroundColor=none;labelBorderColor=none;fontSize=16;" parent="1" vertex="1">
          <mxGeometry x="270" y="30" width="600" height="30" as="geometry" />
        </mxCell>
        <mxCell id="6o3GvOoSOWwoZ4Axit_t-8" value="&lt;font style=&quot;font-size: 12px&quot;&gt;Parametr Sets&lt;/font&gt;" style="rounded=0;whiteSpace=wrap;html=1;shadow=0;labelBackgroundColor=none;labelBorderColor=none;fontSize=16;verticalAlign=top;align=left;fillColor=#dae8fc;strokeColor=#6c8ebf;" parent="1" vertex="1">
          <mxGeometry x="140" y="140" width="260" height="90" as="geometry" />
        </mxCell>
        <mxCell id="6o3GvOoSOWwoZ4Axit_t-9" value="&lt;font style=&quot;font-size: 12px&quot;&gt;Parametr Values&lt;/font&gt;" style="rounded=0;whiteSpace=wrap;html=1;shadow=0;labelBackgroundColor=none;labelBorderColor=none;fontSize=16;verticalAlign=top;align=left;fillColor=#dae8fc;strokeColor=#6c8ebf;" parent="1" vertex="1">
          <mxGeometry x="570" y="140" width="260" height="90" as="geometry" />
        </mxCell>
        <mxCell id="6o3GvOoSOWwoZ4Axit_t-18" style="edgeStyle=orthogonalEdgeStyle;rounded=0;orthogonalLoop=1;jettySize=auto;html=1;fontSize=12;" parent="1" target="6o3GvOoSOWwoZ4Axit_t-23" edge="1">
          <mxGeometry relative="1" as="geometry">
            <mxPoint x="990" y="373.19999999999993" as="sourcePoint" />
            <mxPoint x="990" y="441.6" as="targetPoint" />
            <Array as="points">
              <mxPoint x="990.3" y="451.6" />
              <mxPoint x="990.3" y="451.6" />
            </Array>
          </mxGeometry>
        </mxCell>
        <mxCell id="6o3GvOoSOWwoZ4Axit_t-23" value="CanWebSocket" style="rounded=1;whiteSpace=wrap;html=1;shadow=0;labelBackgroundColor=none;labelBorderColor=none;fillStyle=auto;fontSize=12;fillColor=#fad7ac;strokeColor=#b46504;" parent="1" vertex="1">
          <mxGeometry x="925" y="616.6" width="120" height="35" as="geometry" />
        </mxCell>
        <mxCell id="6o3GvOoSOWwoZ4Axit_t-24" value="ParseBoard" style="rounded=1;whiteSpace=wrap;html=1;shadow=0;labelBackgroundColor=none;labelBorderColor=none;fillStyle=auto;fontSize=12;fillColor=#fad7ac;strokeColor=#b46504;verticalAlign=bottom;" parent="1" vertex="1">
          <mxGeometry x="430" y="570" width="300" height="100" as="geometry" />
        </mxCell>
        <mxCell id="6o3GvOoSOWwoZ4Axit_t-29" style="edgeStyle=orthogonalEdgeStyle;rounded=0;orthogonalLoop=1;jettySize=auto;html=1;fontSize=12;startArrow=classic;startFill=1;" parent="1" source="6o3GvOoSOWwoZ4Axit_t-28" target="6o3GvOoSOWwoZ4Axit_t-23" edge="1">
          <mxGeometry relative="1" as="geometry" />
        </mxCell>
        <mxCell id="6o3GvOoSOWwoZ4Axit_t-28" value="CanServer" style="rounded=1;whiteSpace=wrap;html=1;shadow=0;labelBackgroundColor=none;labelBorderColor=none;fillStyle=auto;fontSize=12;fillColor=#d5e8d4;gradientColor=#97d077;strokeColor=#82b366;align=left;" parent="1" vertex="1">
          <mxGeometry x="475.00000000000006" y="720" width="450" height="50" as="geometry" />
        </mxCell>
        <mxCell id="6o3GvOoSOWwoZ4Axit_t-30" value="WebSocketServer" style="rounded=1;whiteSpace=wrap;html=1;shadow=0;labelBackgroundColor=none;labelBorderColor=none;fillStyle=auto;fontSize=12;fillColor=#fad7ac;strokeColor=#b46504;" parent="1" vertex="1">
          <mxGeometry x="645" y="720" width="110" height="30" as="geometry" />
        </mxCell>
        <mxCell id="6o3GvOoSOWwoZ4Axit_t-33" value="toCAN" style="rounded=0;whiteSpace=wrap;html=1;shadow=0;labelBackgroundColor=none;labelBorderColor=none;fillStyle=auto;fontSize=12;fillColor=#0050ef;fontColor=#ffffff;strokeColor=#001DBC;" parent="1" vertex="1">
          <mxGeometry x="945" y="351.6" width="90" height="21.6" as="geometry" />
        </mxCell>
        <mxCell id="6o3GvOoSOWwoZ4Axit_t-38" style="edgeStyle=orthogonalEdgeStyle;rounded=0;orthogonalLoop=1;jettySize=auto;html=1;fontSize=12;startArrow=none;startFill=0;" parent="1" source="6o3GvOoSOWwoZ4Axit_t-34" target="6o3GvOoSOWwoZ4Axit_t-36" edge="1">
          <mxGeometry relative="1" as="geometry" />
        </mxCell>
        <mxCell id="6o3GvOoSOWwoZ4Axit_t-40" style="edgeStyle=orthogonalEdgeStyle;rounded=0;orthogonalLoop=1;jettySize=auto;html=1;entryX=0.25;entryY=1;entryDx=0;entryDy=0;fontSize=12;startArrow=none;startFill=0;" parent="1" source="6o3GvOoSOWwoZ4Axit_t-34" target="6o3GvOoSOWwoZ4Axit_t-37" edge="1">
          <mxGeometry relative="1" as="geometry" />
        </mxCell>
        <mxCell id="6o3GvOoSOWwoZ4Axit_t-34" value="parseStatus" style="rounded=0;whiteSpace=wrap;html=1;shadow=0;labelBackgroundColor=none;labelBorderColor=none;fillStyle=auto;fontSize=12;fillColor=#0050ef;fontColor=#ffffff;strokeColor=#001DBC;" parent="1" vertex="1">
          <mxGeometry x="640" y="570" width="80" height="20" as="geometry" />
        </mxCell>
        <mxCell id="6o3GvOoSOWwoZ4Axit_t-42" style="edgeStyle=orthogonalEdgeStyle;rounded=0;orthogonalLoop=1;jettySize=auto;html=1;fontSize=12;startArrow=none;startFill=0;" parent="1" source="6o3GvOoSOWwoZ4Axit_t-35" target="6o3GvOoSOWwoZ4Axit_t-41" edge="1">
          <mxGeometry relative="1" as="geometry" />
        </mxCell>
        <mxCell id="6o3GvOoSOWwoZ4Axit_t-35" value="parseSettings" style="rounded=0;whiteSpace=wrap;html=1;shadow=0;labelBackgroundColor=none;labelBorderColor=none;fillStyle=auto;fontSize=12;fillColor=#0050ef;fontColor=#ffffff;strokeColor=#001DBC;" parent="1" vertex="1">
          <mxGeometry x="540" y="570" width="80" height="20" as="geometry" />
        </mxCell>
        <mxCell id="6o3GvOoSOWwoZ4Axit_t-36" value="setStatusLaserT" style="rounded=0;whiteSpace=wrap;html=1;shadow=0;labelBackgroundColor=none;labelBorderColor=none;fillStyle=auto;fontSize=12;fillColor=#0050ef;fontColor=#ffffff;strokeColor=#001DBC;" parent="1" vertex="1">
          <mxGeometry x="710" y="360" width="100" height="21.6" as="geometry" />
        </mxCell>
        <mxCell id="6o3GvOoSOWwoZ4Axit_t-37" value="setStatusBoardT" style="rounded=0;whiteSpace=wrap;html=1;shadow=0;labelBackgroundColor=none;labelBorderColor=none;fillStyle=auto;fontSize=12;fillColor=#0050ef;fontColor=#ffffff;strokeColor=#001DBC;" parent="1" vertex="1">
          <mxGeometry x="580" y="360" width="100" height="21.6" as="geometry" />
        </mxCell>
        <mxCell id="6o3GvOoSOWwoZ4Axit_t-41" value="setBoardSettings" style="rounded=0;whiteSpace=wrap;html=1;shadow=0;labelBackgroundColor=none;labelBorderColor=none;fillStyle=auto;fontSize=12;fillColor=#0050ef;fontColor=#ffffff;strokeColor=#001DBC;" parent="1" vertex="1">
          <mxGeometry x="450" y="360" width="100" height="21.6" as="geometry" />
        </mxCell>
        <mxCell id="6o3GvOoSOWwoZ4Axit_t-43" value="parseBoardMsg" style="rounded=0;whiteSpace=wrap;html=1;shadow=0;labelBackgroundColor=none;labelBorderColor=none;fillStyle=auto;fontSize=12;fillColor=#0050ef;fontColor=#ffffff;strokeColor=#001DBC;" parent="1" vertex="1">
          <mxGeometry x="520" y="624.1" width="150" height="20" as="geometry" />
        </mxCell>
        <mxCell id="6o3GvOoSOWwoZ4Axit_t-25" style="edgeStyle=orthogonalEdgeStyle;rounded=0;orthogonalLoop=1;jettySize=auto;html=1;fontSize=12;" parent="1" source="6o3GvOoSOWwoZ4Axit_t-23" target="6o3GvOoSOWwoZ4Axit_t-43" edge="1">
          <mxGeometry relative="1" as="geometry" />
        </mxCell>
        <mxCell id="6o3GvOoSOWwoZ4Axit_t-46" value="" style="endArrow=classic;html=1;rounded=0;fontSize=12;exitX=0.5;exitY=0;exitDx=0;exitDy=0;" parent="1" source="6o3GvOoSOWwoZ4Axit_t-43" target="6o3GvOoSOWwoZ4Axit_t-34" edge="1">
          <mxGeometry width="50" height="50" relative="1" as="geometry">
            <mxPoint x="606.1111111111111" y="615" as="sourcePoint" />
            <mxPoint x="850" y="410" as="targetPoint" />
          </mxGeometry>
        </mxCell>
        <mxCell id="6o3GvOoSOWwoZ4Axit_t-47" value="" style="endArrow=classic;html=1;rounded=0;fontSize=12;" parent="1" source="6o3GvOoSOWwoZ4Axit_t-43" target="6o3GvOoSOWwoZ4Axit_t-35" edge="1">
          <mxGeometry width="50" height="50" relative="1" as="geometry">
            <mxPoint x="583.8888888888889" y="615" as="sourcePoint" />
            <mxPoint x="668.8888888888889" y="600" as="targetPoint" />
          </mxGeometry>
        </mxCell>
        <mxCell id="6o3GvOoSOWwoZ4Axit_t-48" value="" style="endArrow=classic;html=1;rounded=0;fontSize=12;exitX=0;exitY=0.25;exitDx=0;exitDy=0;" parent="1" edge="1" target="6o3GvOoSOWwoZ4Axit_t-49" source="6o3GvOoSOWwoZ4Axit_t-43">
          <mxGeometry width="50" height="50" relative="1" as="geometry">
            <mxPoint x="618.5555555555557" y="615" as="sourcePoint" />
            <mxPoint x="668.8888888888889" y="600" as="targetPoint" />
          </mxGeometry>
        </mxCell>
        <mxCell id="6o3GvOoSOWwoZ4Axit_t-49" value="setFromCanParams" style="rounded=0;whiteSpace=wrap;html=1;shadow=0;labelBackgroundColor=none;labelBorderColor=none;fillStyle=auto;fontSize=12;fillColor=#0050ef;fontColor=#ffffff;strokeColor=#001DBC;" parent="1" vertex="1">
          <mxGeometry x="300" y="360" width="120" height="21.6" as="geometry" />
        </mxCell>
      </root>
    </mxGraphModel>
  </diagram>
</mxfile>
